<?xml version="1.0" standalone="no"?><!DOCTYPE svg PUBLIC "-//W3C//DTD SVG 1.1//EN" "http://www.w3.org/Graphics/SVG/1.1/DTD/svg11.dtd">
<svg t="1711981612307" class="icon" viewBox="0 0 1024 1024" version="1.1" xmlns="http://www.w3.org/2000/svg" p-id="1896" xmlns:xlink="http://www.w3.org/1999/xlink" width="200" height="200"><path d="M967.164492 817.810893c-26.435807 94.12981-92.19424 162.995342-162.995342 179.142067a174.455952 174.455952 0 0 1-64.485032 6.163262 252.744652 252.744652 0 0 1-115.319204-40.239475 305.870946 305.870946 0 0 1-49.407963-40.290411 310.70987 310.70987 0 0 1-38.049225-45.485888c-58.067091-84.502898-63.262567-185.101585-6.672622-242.659315a151.025371 151.025371 0 0 1 122.246506-41.003516 136.865151 136.865151 0 0 0 85.11413-22.768411 150.974435 150.974435 0 0 1 126.270454-24.703982h2.954291a151.229116 151.229116 0 0 1 90.462414 83.280432 271.794733 271.794733 0 0 1 9.881593 188.463364z m0 0" fill="#EF3F2D" p-id="1897"></path><path d="M844.408625 907.458331A252.795588 252.795588 0 0 1 741.212199 972.299915a186.32405 186.32405 0 0 1-35.40055 8.200703 161.620069 161.620069 0 0 0 29.033545 2.648674 174.60876 174.60876 0 0 0 64.230352-8.557255 252.795588 252.795588 0 0 0 103.349234-65.096265 305.870946 305.870946 0 0 0 39.067946-50.426684 310.149574 310.149574 0 0 0 26.741423-53.126294c37.539865-95.199467 20.068801-194.422881-48.338306-237.922263a142.620924 142.620924 0 0 0-99.01967-18.897272 132.433715 132.433715 0 0 1 41.258196 17.063575c68.152427 43.295638 85.827235 142.620924 48.338306 237.922263a324.207922 324.207922 0 0 1-65.80937 103.298298z m0 0" fill="#DF1F26" p-id="1898"></path><path d="M500.845006 838.796543c-52.158509 88.221229-137.52732 140.125058-213.269217 137.52732a182.758527 182.758527 0 0 1-66.980899-11.104058A265.173047 265.173047 0 0 1 114.698854 893.145302a321.253632 321.253632 0 0 1-40.748835-54.348759 325.124771 325.124771 0 0 1-26.435807-56.335265C11.502428 681.149486 33.201183 577.851188 106.396279 535.319591a158.411098 158.411098 0 0 1 134.674901-8.659128 143.588709 143.588709 0 0 0 92.652665 0 157.901737 157.901737 0 0 1 134.674901 8.659128l2.69961 1.731825a158.411098 158.411098 0 0 1 69.171149 108.748455 285.241848 285.241848 0 0 1-39.526371 192.996672z m0 0" fill="#EF3F2D" p-id="1899"></path><path d="M398.769173 893.399982a265.173047 265.173047 0 0 1-106.303524 72.176375 194.575689 194.575689 0 0 1-36.82676 9.117552 169.311411 169.311411 0 0 0 30.561627 1.986506 182.962271 182.962271 0 0 0 66.980898-11.104058 265.173047 265.173047 0 0 0 105.997908-72.176375 321.457376 321.457376 0 0 0 40.748835-54.348759 324.819155 324.819155 0 0 0 26.435807-56.335265c36.062719-100.598688 15.280813-203.744177-58.831131-247.141687a149.701034 149.701034 0 0 0-104.520763-16.554214 138.647913 138.647913 0 0 1 44.008743 16.554214c73.14416 42.480661 94.893851 145.778959 58.831131 247.141687a324.207922 324.207922 0 0 1-26.435807 56.335265 321.66112 321.66112 0 0 1-40.748836 54.348759z m0 0" fill="#DF1F26" p-id="1900"></path><path d="M509.402262 843.788275c75.33441 155.762424 293.391615 224.424211 417.166203 82.516392 59.085811-67.795875 90.666159-165.440272 71.71795-254.680222s-97.542525-158.411098-190.857358-149.650098a220.654944 220.654944 0 0 0-76.404066 22.004371c-12.784947 6.214197-28.116696 18.438848-42.022237 21.342203-7.946023 1.680889-23.379644-1.222465-33.770597-0.407488a262.677181 262.677181 0 0 0-40.748836 6.214197 195.034114 195.034114 0 0 0-75.640026 36.877696c-15.280813 12.122779 6.316069 33.617789 21.596883 21.596883a160.601348 160.601348 0 0 1 62.19291-29.033545c24.551173-5.908581 49.458899-1.273401 73.449776-5.704837 22.870284-4.227692 45.384015-23.583389 67.133707-31.68222 83.229496-30.867243 169.7189 8.251639 199.159933 93.009217 51.852893 149.395418-75.33441 344.072979-240.978426 315.803475-81.039247-13.854604-150.006651-70.393613-185.458137-143.588709-8.557255-17.725743-34.942126-2.241186-26.384871 15.280813z" fill="#010101" p-id="1901"></path><path d="M629.152902 84.331854C544.802813 39.864688 502.576832 55.145501 465.495392 29.473735l-5.653901 3.463651a188.76898 188.76898 0 0 0 101.872088 143.334028c69.171148 36.3174 110.48028 23.226836 156.679273 24.703982a3.208971 3.208971 0 0 0 3.20897-4.686116 227.887862 227.887862 0 0 0-92.44892-112.059298z m0 0" fill="#81C05B" p-id="1902"></path><path d="M462.490165 45.314844c47.421457 30.867243 107.882542 15.688302 156.933952 44.721847 52.871614 31.325667 97.287845 88.832461 98.102822 152.095029 0 19.661313 30.816307 19.712249 30.561626 0-0.814977-64.841584-39.169818-123.418035-89.392757-162.180366a193.556968 193.556968 0 0 0-81.497671-38.864201c-33.566853-6.214197-69.629573-2.852418-99.325287-22.15718-16.554214-10.747505-31.885964 15.688302-15.280813 26.384871z" fill="#010101" p-id="1903"></path><path d="M445.783142 32.122409c-2.44493 83.687921 38.456713 157.137697 112.568658 196.664067 17.369191 9.27036 32.802813-17.114511 15.280814-26.384871C508.740093 167.663223 474.205455 105.674057 476.344769 32.122409c0.560296-19.661313-30.00133-19.661313-30.561627 0z" fill="#010101" p-id="1904"></path><path d="M456.63252 7.978724C409.058254 116.727178 410.127911 232.810424 458.007793 341.457006s132.433715 199.261805 225.08638 272.151285c15.280813 12.020906 37.08144-9.474104 21.596883-21.596883C533.953435 457.591187 385.780482 245.748179 483.017391 23.412345 490.810606 5.58473 464.527607-10.0017 456.63252 7.978724z" fill="#010101" p-id="1905"></path><path d="M459.026514 4.871625a591.774963 591.774963 0 0 0-143.334029 269.298866c-23.583389 98.000949-27.352656 199.363677-31.070987 299.707685-0.713105 19.661313 29.848522 19.661313 30.561627 0C318.443032 478.984326 322.008555 382.918946 343.401693 289.858793c22.717476-99.070606 67.490259-188.972724 137.27264-263.339349 13.39618-14.363964-8.149767-36.011783-21.647819-21.647819z" fill="#010101" p-id="1906"></path><path d="M305.912765 554.064055c22.259051-0.814977 42.429725-7.283854 63.720991-13.192435a121.584338 121.584338 0 0 1 87.457188 5.908581c45.129335 21.24033 73.093224 68.916468 79.154613 117.152902C547.655231 755.057686 491.01435 846.436949 425.408725 904.656848c-39.831987 35.655231-87.81374 57.608666-141.958756 55.163736-50.936044-2.292122-100.293071-25.468022-138.851657-58.118026-66.216858-56.029649-112.466786-149.955714-99.630902-237.9732 7.691343-52.973486 40.748835-105.641356 92.19424-125.302669a142.620924 142.620924 0 0 1 81.956095-5.093604c29.339162 6.723558 56.029649 19.304761 86.591275 20.883778 19.661313 1.018721 19.610377-29.542906 0-30.561626-34.229022-1.782762-64.994393-19.559441-98.968734-23.328709a171.450725 171.450725 0 0 0-84.401025 11.46061c-47.727074 19.814121-82.363584 62.956951-98.76499 111.142449-33.363109 97.848141 10.747505 210.620543 79.765845 281.981941 79.409293 82.108903 207.3097 116.185117 307.24622 50.019196 86.081915-56.997434 158.309226-164.166871 157.239569-269.961035-0.560296-58.321771-26.384871-118.630047-75.181602-152.553453A156.883017 156.883017 0 0 0 407.835789 504.452348c-35.349615-0.713105-66.980898 18.03136-101.872088 19.253825-19.661313 0.50936-19.763185 31.070987-0.050936 30.357882zM715.744177 588.751501c9.474104 9.321296 15.280813 21.953435 6.112326 33.668726s-25.875511 5.093604-35.247743-3.158035c-14.669581-12.988691-36.368336 8.557255-21.596883 21.596883 21.953435 19.457569 56.640881 27.454528 78.492444 3.158034s15.280813-55.774969-6.112325-76.862491c-14.007412-13.803668-35.655231 7.793215-21.596883 21.596883z" fill="#010101" p-id="1907"></path><path d="M304.741236 552.230357c9.474104 9.321296 15.280813 21.953435 6.112325 33.668726s-25.875511 5.093604-35.247743-3.158035c-14.669581-12.988691-36.368336 8.557255-21.596883 21.596883 21.953435 19.457569 56.640881 27.454528 78.492445 3.158035s15.280813-55.774969-6.112326-76.862491c-14.007412-13.803668-35.655231 7.793215-21.596882 21.596882z" fill="#010101" p-id="1908"></path></svg>